<?xml version="1.0" encoding="utf-8"?>
<!-- Generator: Adobe Illustrator 20.1.0, SVG Export Plug-In . SVG Version: 6.00 Build 0)  -->
<!DOCTYPE svg PUBLIC "-//W3C//DTD SVG 1.1//EN" "http://www.w3.org/Graphics/SVG/1.1/DTD/svg11.dtd">
<svg version="1.1" id="sample" xmlns="http://www.w3.org/2000/svg" xmlns:xlink="http://www.w3.org/1999/xlink" x="0px" y="0px"
	 viewBox="0 0 100 100" style="enable-background:new 0 0 100 100;" xml:space="preserve">
<style type="text/css">
	.st0{fill:#FFFFFF;}
</style>
<title>•SET15-v2</title>
<path class="st0" d="M60.4,45.2c-0.1-0.3-0.2-0.5-0.5-0.7l-14-8.4c0.1-0.1,0.3-0.1,0.4-0.2l1.6-0.7c1-0.4,1.4-1.5,1-2.5
	c-0.1-0.4-0.4-0.7-0.7-0.9l-8.2-5.7h0.4c1.5,0,3-0.6,4.1-1.5l1.1-1c0.8-0.7,0.9-1.9,0.2-2.7c-0.2-0.3-0.5-0.5-0.9-0.6L37.5,18l1-0.9
	c1.2-1,2-2.3,2.3-3.8l0.3-1.6c0.2-1.1-0.5-2.2-1.7-2.4c-0.5-0.1-1,0-1.4,0.2L26,16.5c-0.1,0-0.1,0.1-0.2,0.1
	c-0.2,0.1-0.3,0.1-0.5,0.2l-9.5,5c-2.3,1.2-4.8,1.8-7.4,1.8H6.3c-0.6,0-1.1,0.5-1.1,1.1c0,0.6,0.5,1.1,1.1,1.1h2.2
	c2.9,0,5.8-0.7,8.4-2.1l9.5-5c1.5-0.8,3.2-0.9,4.8-0.4l12.9,4L43.3,23c-0.7,0.6-1.7,1-2.7,1l-3.8-0.2l-0.4-0.3
	c-2-1.4-4.5-2.2-6.9-2.2h-2.8c-0.6,0-1.1,0.5-1.1,1.1c0,0.6,0.5,1.1,1.1,1.1h2.8c2,0,4,0.6,5.7,1.8l11.6,8l-1.3,0.5
	c-1,0.4-2.2,0.4-3.2-0.1l-6.2-3.2c-3.4-1.7-7.3-2-10.8-0.6l-4,1l-0.1,0c-1.7,0.6-2.7,2.3-2.6,4.1c0.1,1.8,1.4,2.8,2.6,3.5l7.6,4.1
	c1.6,1,2.7,1.6,3.2,2.9l0.4,1.1c0.1,0.1,0,0.3-0.1,0.4c-0.1,0.1-0.2,0.2-0.4,0.1l-13.2-4.1c-0.6-0.2-1.2-0.4-1.7-0.6
	c-1.5-0.6-3-1-4.6-1.1h-6c-0.6,0-1.1,0.5-1.1,1.1s0.5,1.1,1.1,1.1h6c1.3,0.1,2.7,0.4,3.9,0.9c0.6,0.2,1.2,0.4,1.8,0.6l13.2,4.1h0.1
	c0.2,0,0.4,0.1,0.6,0.1c1.2,0,2.3-0.8,2.5-2l17.2,10.2c0.2,0.1,0.4,0.2,0.5,0.2c0.4,0,0.7-0.2,0.9-0.5L60.3,46
	C60.4,45.7,60.5,45.4,60.4,45.2z M31.1,16l7.9-4.6l-0.3,1.5c-0.2,1-0.7,1.9-1.5,2.6L35,17.3l-3.2-1C31.6,16.2,31.3,16.1,31.1,16z
	 M20.7,34.9c-0.1-0.8,0.4-1.6,1.1-1.9l3.6-0.9l-2.9,4.7l-0.3-0.2C21,36,20.8,35.5,20.7,34.9z M51.9,55.3L33.8,44.5
	c-0.8-1.8-2.4-2.8-3.9-3.7l-5.5-3l4.1-6.5c2.3-0.3,4.6,0.1,6.7,1.1l5.2,2.7l0,0l17.5,10.5L51.9,55.3z"/>
<path class="st0" d="M48.1,50.5c2.3,0,4.2-1.9,4.2-4.2c0-2.3-1.9-4.2-4.2-4.2c-2.3,0-4.2,1.9-4.2,4.2c0,0,0,0,0,0
	C43.9,48.7,45.8,50.5,48.1,50.5z M48.1,44.4c1.1,0,2,0.9,2,2c0,1.1-0.9,2-2,2s-2-0.9-2-2c0,0,0,0,0,0C46.1,45.3,47,44.4,48.1,44.4z"
	/>
<g>
	<path class="st0" d="M81.4,91.4l-5.2-6.2H48.3l-21.2-19c0.7-0.7,1.5-1,2.4-1.1c3.6-0.4,8.7,3.9,14,8.4c1.9,1.6,3.8,3.2,5.8,4.8
		l0.3,0.3h10.6l0.3-0.1c1.5-0.8,3.2-1.7,3.7-3.9l0.4-1.6H51.4c-1.1-1.2-1.7-2.4-1.6-3.4c0.1-1.1,0.8-2.3,2.3-3.6h11.7l0.3-0.1
		C73.5,61,82.2,65,93,79.5c0,0,1.2,1.2,1.8,1.7l1.5-1.5l-0.6-0.9c-7.9-10.8-18.8-22.2-32.5-15.4H51.2l-0.3,0.3
		c-2.3,1.8-3.5,3.7-3.6,5.7c-0.1,1.9,0.8,3.8,2.7,5.7l0.4,0.4h10.3c-0.3,0.2-0.6,0.4-0.9,0.5h-9.2c-1.8-1.5-3.6-3-5.4-4.4
		c-6-5.1-11.2-9.5-15.9-9c-1.9,0.2-3.5,1.2-4.9,2.9l-0.7,0.9l23.7,21.3H75l6.2,7.5l1.8-1.9c0,0,0,0,0,0
		C82.5,92.6,81.4,91.4,81.4,91.4z"/>
</g>
</svg>
