<?xml version="1.0" encoding="utf-8"?>
<!-- Generator: Adobe Illustrator 20.1.0, SVG Export Plug-In . SVG Version: 6.00 Build 0)  -->
<!DOCTYPE svg PUBLIC "-//W3C//DTD SVG 1.1//EN" "http://www.w3.org/Graphics/SVG/1.1/DTD/svg11.dtd">
<svg xmlns="http://www.w3.org/2000/svg" xmlns:xlink="http://www.w3.org/1999/xlink" version="1.1" id="color-innovator" x="0px" y="0px" viewBox="0 0 140 70" style="enable-background:new 0 0 140 70;" xml:space="preserve">
<style type="text/css">
	.st0{fill:#424143;}
	.st1{fill:#E4C836;}
	.st2{fill:#17406F;}
	.st3{fill:#556D31;}
	
	
.rect-1 {
  animation:myfirst 1s;
    -moz-animation:myfirst 1s infinite; /* Firefox */
    -webkit-animation:myfirst 2s infinite; /* Safari and Chrome */
}

@-moz-keyframes myfirst /* Firefox */ {
    0% {fill:#E4C836;}
    50% {fill:#17406F;}
    100% {fill:#E4C836;}
}

@-webkit-keyframes myfirst /* Safari and Chrome */ {
    0% {fill:#E4C836;}
    50% {fill:#17406F;}
    100% {fill:#E4C836;}
}

.rect-2 {
  animation:myfirst-2 1s;
    -moz-animation:myfirst-2 1s infinite; /* Firefox */
    -webkit-animation:myfirst-2 2s infinite; /* Safari and Chrome */
}

@-moz-keyframes myfirst-2 /* Firefox */ {
    0% {fill:#17406F;}
    50% {fill:#E4C836;}
    100% {fill:#17406F;}
}

@-webkit-keyframes myfirst-2 /* Safari and Chrome */ {
    0% {fill:#17406F;}
    50% {fill:#E4C836;}
    100% {fill:#17406F;}
}
.rect-3 {
  animation:myfirst-3 1s;
    -moz-animation:myfirst-3 1s infinite; /* Firefox */
    -webkit-animation:myfirst-3 2s infinite; /* Safari and Chrome */
}

@-moz-keyframes myfirst-3 /* Firefox */ {
    0% {fill:#E4C836;}
    50% {fill:#556D31;}
    100% {fill:#E4C836;}
}

@-webkit-keyframes myfirst-3 /* Safari and Chrome */ {
    0% {fill:#E4C836;}
    50% {fill:#556D31;}
    100% {fill:#E4C836;}
}
.rect-4 {
  animation:myfirst-4 1s;
    -moz-animation:myfirst-4 1s infinite; /* Firefox */
    -webkit-animation:myfirst-4 2s infinite; /* Safari and Chrome */
}

@-moz-keyframes myfirst-4 /* Firefox */ {
    0% {fill:#556D31;}
    50% {fill:#424143;}
    100% {fill:#556D31;}
}

@-webkit-keyframes myfirst-4 /* Safari and Chrome */ {
    0% {fill:#556D31;}
    50% {fill:#424143;}
    100% {fill:#556D31;}
}
.rect-5 {
  animation:myfirst-5 1s;
    -moz-animation:myfirst-5 1s infinite; /* Firefox */
    -webkit-animation:myfirst-5 2s infinite; /* Safari and Chrome */
}

@-moz-keyframes myfirst-5 /* Firefox */ {
    0% {fill:#17406F;}
    50% {fill:#E4C836;}
    100% {fill:#17406F;}
}

@-webkit-keyframes myfirst-5 /* Safari and Chrome */ {
    0% {fill:#17406F;}
    50% {fill:#E4C836;}
    100% {fill:#17406F;}
}
.rect-6 {
  animation:myfirst-6 1s;
    -moz-animation:myfirst-6 1s infinite; /* Firefox */
    -webkit-animation:myfirst-6 2s infinite; /* Safari and Chrome */
}

@-moz-keyframes myfirst-6 /* Firefox */ {
    0% {fill:#424143;}
    50% {fill:#556D31;}
    100% {fill:#424143;}
}

@-webkit-keyframes myfirst-6 /* Safari and Chrome */ {
    0% {fill:#424143;}
    50% {fill:#556D31;}
    100% {fill:#424143;}
}
.rect-7 {
  animation:myfirst-7 1s;
    -moz-animation:myfirst-7 1s infinite; /* Firefox */
    -webkit-animation:myfirst-7 2s infinite; /* Safari and Chrome */
}

@-moz-keyframes myfirst-7 /* Firefox */ {
    0% {fill:#556D31;}
    50% {fill:#17406F;}
    100% {fill:#556D31;}
}

@-webkit-keyframes myfirst-7 /* Safari and Chrome */ {
    0% {fill:#556D31;}
    50% {fill:#17406F;}
    100% {fill:#556D31;}
}
</style>
<g>
	<path class="st0" d="M11.8,32H9.5v4.9c0,2,0.1,2.1,0.9,2.1h1.3v2.8H9.5c-1.6,0-2.4-0.2-3-0.8c-0.6-0.6-0.7-1.3-0.7-3.2V32H4.1v-2.6   h1.8v-4h3.7v4h2.3V32z"/>
	<path class="st0" d="M16.7,30.4c1-1,2-1.4,3.3-1.4c1.3,0,2.4,0.5,3.2,1.4c0.8,0.9,1.1,1.9,1.1,3.8v7.7h-3.7v-7   c0-1.2-0.1-1.6-0.4-2.1c-0.3-0.4-0.8-0.7-1.5-0.7c-0.6,0-1.2,0.2-1.6,0.6c-0.4,0.4-0.5,0.8-0.5,2.1v7H13V24.5h3.7V30.4z"/>
	<path class="st0" d="M29.4,36.6c0.2,1.7,1.2,2.7,2.8,2.7c1,0,1.7-0.3,2.2-1.1h3.7c-0.7,2.4-3,4-6,4c-3.9,0-6.4-2.7-6.4-6.6   c0-3.9,2.6-6.6,6.4-6.6c2.7,0,4.7,1.3,5.6,3.7c0.4,1.1,0.6,2.3,0.6,4H29.4z M34.5,34c-0.2-1.5-1-2.3-2.4-2.3   c-1.4,0-2.4,0.8-2.7,2.3H34.5z"/>
	<path class="st0" d="M54.1,33.8c-0.2-1.2-1-1.9-2.3-1.9c-1.7,0-2.6,1.3-2.6,3.6c0,2.4,0.9,3.7,2.6,3.7c1.3,0,2.1-0.7,2.3-2.2   l3.6,0.2c-0.5,3.2-2.7,5-6,5c-3.8,0-6.2-2.5-6.2-6.6c0-4.2,2.4-6.7,6.4-6.7c3.3,0,5.5,1.9,5.7,4.9H54.1z"/>
	<path class="st0" d="M71.5,35.7c0,3.8-2.8,6.5-6.7,6.5c-3.9,0-6.7-2.7-6.7-6.6c0-3.9,2.8-6.6,6.7-6.6   C68.8,28.9,71.5,31.7,71.5,35.7z M61.9,35.5c0,2.4,1.1,3.7,3,3.7c1.8,0,2.9-1.3,2.9-3.6c0-2.4-1-3.7-3-3.7   C63,31.9,61.9,33.2,61.9,35.5z"/>
	<path class="st0" d="M76.5,41.8h-3.7V24.5h3.7V41.8z"/>
	<path class="st0" d="M91.2,35.7c0,3.8-2.8,6.5-6.7,6.5c-3.9,0-6.7-2.7-6.7-6.6c0-3.9,2.8-6.6,6.7-6.6   C88.5,28.9,91.2,31.7,91.2,35.7z M81.6,35.5c0,2.4,1.1,3.7,3,3.7c1.8,0,2.9-1.3,2.9-3.6c0-2.4-1-3.7-3-3.7   C82.7,31.9,81.6,33.2,81.6,35.5z"/>
	<path class="st0" d="M96.1,29.3L96,31.5c0.7-2,1.7-2.6,4.3-2.6v3.5c-0.4-0.1-0.6-0.1-0.9-0.1c-1.3,0-2.3,0.6-2.7,1.5   c-0.4,0.8-0.5,2-0.5,4.4v3.5h-3.7V29.3H96.1z"/>
</g>
<g>
	<path class="st1" d="M9.6,47.4H6.3v-3.9h3.3V47.4z M9.6,67.7H6.3V50.2h3.3V67.7z"/>
	<path class="st1" d="M16.3,50.2v2c1.7-1.9,3.2-2.5,5.6-2.5c2.1,0,3.8,0.7,4.8,1.9c0.8,1.1,1.2,2.3,1.2,4.4v11.7h-3.3V56.2   c0-2.4-1.1-3.6-3.4-3.6c-2.9,0-4.6,1.7-4.6,4.4v10.6h-3.3V50.2H16.3z"/>
	<path class="st1" d="M34.5,50.2v2c1.7-1.9,3.2-2.5,5.6-2.5c2.1,0,3.8,0.7,4.8,1.9c0.8,1.1,1.2,2.3,1.2,4.4v11.7h-3.3V56.2   c0-2.4-1.1-3.6-3.4-3.6c-2.9,0-4.6,1.7-4.6,4.4v10.6h-3.3V50.2H34.5z"/>
	<path class="st1" d="M65.5,59.1c0,5.4-3.5,9.1-8.5,9.1c-5,0-8.4-3.7-8.4-9.3c0-5.5,3.4-9.2,8.4-9.2C62.1,49.7,65.5,53.4,65.5,59.1z    M52,58.9c0,4.1,1.9,6.5,5.1,6.5c3.2,0,5-2.4,5-6.4c0-4.2-1.8-6.5-5.1-6.5C53.8,52.5,52,54.9,52,58.9z"/>
	<path class="st1" d="M71.4,67.7l-6-17.5H69l3,9.4c0.4,1.1,0.9,3.3,1.4,4.9c0-0.3,0.1-0.5,0.2-0.7l0.3-1.3c0.1-0.3,0.7-2.3,0.8-2.8   l3-9.5h3.6l-6.1,17.5H71.4z"/>
	<path class="st1" d="M82,56c0.1-2.1,0.5-3.3,1.4-4.3c1.1-1.3,3.2-2,5.7-2c4.4,0,6.8,2.1,6.8,5.7v8.2c0,1.4,0.2,1.7,0.9,1.7   c0.3,0,0.5,0,0.9-0.2v2.6c-0.8,0.2-1.5,0.3-2.2,0.3c-1.6,0-2.3-0.7-2.6-2.4c-1.8,1.8-3.7,2.6-6.1,2.6c-3.4,0-5.7-2.1-5.7-5.2   c0-2.8,1.7-4.6,5.3-5.3l3.9-0.8c2.1-0.4,2.5-0.7,2.5-1.8c0-1.7-1.5-2.8-3.9-2.8c-1.7,0-3.1,0.5-3.5,1.5c-0.3,0.5-0.3,0.9-0.4,2.1   H82z M92.9,58.7c-0.6,0.3-1.2,0.4-2.1,0.7l-3.4,0.8c-2,0.5-2.9,1.3-2.9,2.7c0,1.6,1.3,2.7,3.3,2.7c2.8,0,5.2-2.1,5.2-4.6V58.7z"/>
	<path class="st1" d="M106.5,52.8h-3.2v11c0,1,0.5,1.6,1.3,1.6c0.5,0,0.9-0.1,1.9-0.5v2.7c-1.5,0.3-2,0.4-2.8,0.4   c-2.5,0-3.7-1.3-3.7-4.2v-11h-2.4v-2.7h2.4v-5.6h3.3v5.6h3.2V52.8z"/>
	<path class="st1" d="M123.9,59.1c0,5.4-3.5,9.1-8.5,9.1c-5,0-8.4-3.7-8.4-9.3c0-5.5,3.4-9.2,8.4-9.2   C120.6,49.7,123.9,53.4,123.9,59.1z M110.4,58.9c0,4.1,1.9,6.5,5.1,6.5c3.2,0,5-2.4,5-6.4c0-4.2-1.8-6.5-5.1-6.5   C112.3,52.5,110.4,54.9,110.4,58.9z"/>
	<path class="st1" d="M129.7,50.2v2.8c0.7-1,1-1.4,1.5-1.9c0.8-0.8,2.1-1.4,3.1-1.4c0.7,0,1.3,0.1,1.9,0.4v3   c-0.7-0.1-1.1-0.2-1.5-0.2c-2.7,0-4.8,2.4-4.8,5.5v9.2h-3.3V50.2H129.7z"/>
</g>
<rect x="67.7" y="13.7" transform="matrix(0.9029 0.4299 -0.4299 0.9029 14.2851 -28.9523)" class="st2 rect-1" width="6.9" height="6.9"/>
<rect x="78.4" y="6.1" transform="matrix(0.9029 0.4299 -0.4299 0.9029 12.917 -34.8207)" class="st3 rect-2" width="10.2" height="10.2"/>
<rect x="83" y="20.8" transform="matrix(0.9943 0.1063 -0.1063 0.9943 2.9194 -8.9246)" class="st1 rect-3" width="4.3" height="4.3"/>
<rect x="94" y="13.2" transform="matrix(0.9121 -0.41 0.41 0.9121 1.5819 41.6499)" class="st2 rect-4" width="7.9" height="7.9"/>
<rect x="107.7" y="24.1" transform="matrix(0.9661 -0.258 0.258 0.9661 -3.3436 29.6021)" class="st3 rect-5" width="6.9" height="6.9"/>
<rect x="112.4" y="8" transform="matrix(0.9121 -0.41 0.41 0.9121 5.328 48.7386)" class="st0 rect-6" width="7.9" height="7.9"/>
<rect x="102.1" y="2.7" transform="matrix(0.9943 0.1063 -0.1063 0.9943 1.111 -11.0581)" class="st3 rect-7" width="4.3" height="4.3"/>



</svg>