<?xml version="1.0" encoding="utf-8"?>
<!-- Generator: Adobe Illustrator 20.1.0, SVG Export Plug-In . SVG Version: 6.00 Build 0)  -->
<!DOCTYPE svg PUBLIC "-//W3C//DTD SVG 1.1//EN" "http://www.w3.org/Graphics/SVG/1.1/DTD/svg11.dtd">
<svg version="1.1" id="Layer_1" xmlns="http://www.w3.org/2000/svg" xmlns:xlink="http://www.w3.org/1999/xlink" x="0px" y="0px"
	 viewBox="0 0 101 50" style="enable-background:new 0 0 101 50;" xml:space="preserve">
<g id="Sun">
	<g>
		<path d="M60.3,25c0-0.6-0.4-1-1-1h-6c-0.6,0-1,0.4-1,1s0.4,1,1,1h6C59.8,26,60.3,25.6,60.3,25z M85.6,15.1l4.2-4.2
			c0.4-0.4,0.4-1,0-1.4c-0.4-0.4-1-0.4-1.4,0l-4.2,4.2c-0.4,0.4-0.4,1,0,1.4C84.6,15.5,85.2,15.5,85.6,15.1z M63,34.9l-4.2,4.2
			c-0.4,0.4-0.4,1,0,1.4c0.4,0.4,1,0.4,1.4,0l4.2-4.2c0.4-0.4,0.4-1,0-1.4C64,34.5,63.3,34.5,63,34.9z M74.3,11c0.6,0,1-0.4,1-1V4
			c0-0.6-0.4-1-1-1s-1,0.4-1,1v6C73.3,10.6,73.7,11,74.3,11z M63,15.1c0.4,0.4,1,0.4,1.4,0c0.4-0.4,0.4-1,0-1.4l-4.2-4.2
			c-0.4-0.4-1-0.4-1.4,0c-0.4,0.4-0.4,1,0,1.4L63,15.1z M95.3,24h-6c-0.6,0-1,0.4-1,1s0.4,1,1,1h6c0.6,0,1-0.4,1-1S95.8,24,95.3,24z
			 M85.6,34.9c-0.4-0.4-1-0.4-1.4,0c-0.4,0.4-0.4,1,0,1.4l4.2,4.2c0.4,0.4,1,0.4,1.4,0c0.4-0.4,0.4-1,0-1.4L85.6,34.9z M74.3,39
			c-0.6,0-1,0.4-1,1v6c0,0.6,0.4,1,1,1s1-0.4,1-1v-6C75.3,39.4,74.8,39,74.3,39z M74.3,13c-6.6,0-12,5.4-12,12c0,6.6,5.4,12,12,12
			s12-5.4,12-12C86.3,18.4,80.9,13,74.3,13z M74.3,35c-5.5,0-10-4.5-10-10c0-5.5,4.5-10,10-10s10,4.5,10,10
			C84.3,30.5,79.8,35,74.3,35z"/>
	</g>
</g>
<g id="Tree">
	<g>
		<path d="M40.1,37.5L40.1,37.5L35,29h2.2c0.6,0,1-0.4,1-1c0-0.2-0.1-0.4-0.2-0.6l0,0L33.2,21h2c0.6,0,1-0.4,1-1
			c0-0.3-0.1-0.6-0.3-0.7l0,0L30.4,13h1.8c0.6,0,1-0.4,1-1c0-0.3-0.1-0.5-0.3-0.7l-8-8C24.8,3.1,24.5,3,24.2,3
			c-0.3,0-0.5,0.1-0.7,0.3l-8,8c-0.2,0.2-0.3,0.4-0.3,0.7c0,0.6,0.4,1,1,1H18l-5.5,6.3l0,0c-0.2,0.2-0.3,0.4-0.3,0.7
			c0,0.6,0.4,1,1,1h2l-4.8,6.4l0,0c-0.1,0.2-0.2,0.4-0.2,0.6c0,0.6,0.4,1,1,1h2.2l-5.1,8.5l0,0c-0.1,0.2-0.2,0.3-0.2,0.5
			c0,0.6,0.4,1,1,1h11v7c0,0.6,0.4,1,1,1h6c0.6,0,1-0.4,1-1v-7h11c0.6,0,1-0.4,1-1C40.2,37.8,40.2,37.6,40.1,37.5z M26.2,45h-4v-6h4
			V45z M11,37l5.1-8.5l0,0c0.1-0.2,0.2-0.3,0.2-0.5c0-0.6-0.4-1-1-1h-2l4.8-6.4l0,0c0.1-0.2,0.2-0.4,0.2-0.6c0-0.6-0.4-1-1-1h-1.8
			l5.5-6.3l0,0c0.2-0.2,0.3-0.4,0.3-0.7c0-0.6-0.4-1-1-1h-1.6l5.6-5.6l5.6,5.6h-1.6c-0.6,0-1,0.4-1,1c0,0.3,0.1,0.6,0.3,0.7l0,0
			L33,19h-1.8c-0.6,0-1,0.4-1,1c0,0.2,0.1,0.4,0.2,0.6l0,0l4.8,6.4h-2c-0.6,0-1,0.4-1,1c0,0.2,0.1,0.4,0.2,0.5l0,0l5.1,8.5H11z"/>
	</g>
</g>
</svg>
